#!OML:ASF F:\VICON\USERDATA\INSTALL\rory3\rory3.ASF
:FULLY-SPECIFIED
:DEGREES
3039
root -3.88674 18.6274 3.53411 0.021896 -13.9033 2.80942
lowerback 4.21107 -1.08266 4.01327
upperback -0.103771 -1.25918 -0.590857
thorax -2.56956 -0.683705 -2.78002
lowerneck -9.10308 -9.4915 -5.20737
upperneck 5.33349 -12.8187 8.92651
head 3.98881 -6.05287 2.68186
rclavicle -6.78353e-015 -3.57812e-015
rhumerus 68.239 -16.5079 -42.5628
rradius 53.0423
rwrist 12.8671
rhand -57.2839 363.105
rfingers 7.12502
rthumb -29.5625 -24.561
lclavicle -6.78353e-015 -3.57812e-015
lhumerus -31.0181 -3.58634 71.0465
lradius 35.0213
lwrist -10.395
lhand -29.6191 23.869
lfingers 7.12502
lthumb -2.94965 53.8284
rfemur -7.85194 21.7563 14.6107
rtibia 28.0985
rfoot -18.9397 -16.0733
rtoes -7.09798
lfemur 2.05723 -3.68883 -8.34813
ltibia 20.2437
lfoot -6.98414 16.2288
ltoes -25.9803
3040
root -3.90114 18.6194 3.53077 0.0165354 -13.8882 2.8015
lowerback 4.21979 -1.07515 3.97708
upperback -0.059518 -1.25078 -0.567727
thorax -2.52675 -0.677333 -2.73663
lowerneck -8.93009 -9.54066 -5.2661
upperneck 5.15463 -12.8794 9.02727
head 3.92134 -6.08856 2.72726
rclavicle 1.43622e-014 -5.96354e-015
rhumerus 68.9206 -16.7605 -44.4771
rradius 52.4444
rwrist 11.9559
rhand -57.3193 364.666
rfingers 7.12502
rthumb -29.5963 -22.9935
lclavicle 1.43622e-014 -5.96354e-015
lhumerus -30.904 -3.71919 71.1757
lradius 35.105
lwrist -10.2472
lhand -29.3532 23.7701
lfingers 7.12502
lthumb -2.69285 53.7328
rfemur -8.00117 21.7733 14.6791
rtibia 28.415
rfoot -19.011 -16.1194
rtoes -7.16509
lfemur 2.05761 -3.73678 -8.31276
ltibia 20.2349
lfoot -6.97316 16.3333
ltoes -25.8536
3041
root -3.91374 18.6116 3.52784 0.01661 -13.8488 2.91544
lowerback 4.17421 -1.08682 3.87091
upperback -0.0217192 -1.27501 -0.602079
thorax -2.46238 -0.686474 -2.71194
lowerneck -8.75829 -9.53871 -5.26796
upperneck 4.96708 -12.8755 9.11134
head 3.84228 -6.0925 2.76504
rclavicle -1.02374e-014 0
rhumerus 69.5824 -16.9522 -46.5614
rradius 51.9001
rwrist 11.1256
rhand -56.9137 366.741
rfingers 7.12502
rthumb -29.2091 -20.9868
lclavicle -1.02374e-014 0
lhumerus -30.7983 -3.82031 71.2668
lradius 35.1753
lwrist -10.1291
lhand -28.8971 24.1032
lfingers 7.12502
lthumb -2.25233 54.071
rfemur -8.18403 21.717 14.5876
rtibia 28.7192
rfoot -19.0556 -16.1092
rtoes -7.45392
lfemur 1.98131 -3.816 -8.4311
ltibia 20.3023
lfoot -6.86103 16.476
ltoes -26.2475
3042
root -3.92542 18.6046 3.52567 -0.00625945 -13.7539 2.99442
lowerback 4.193 -1.12038 3.82821
upperback -0.0361751 -1.32204 -0.650469
thorax -2.4916 -0.7105 -2.73434
lowerneck -8.67883 -9.52064 -5.34203
upperneck 5.04438 -12.8635 9.23348
head 3.86539 -6.08317 2.81498
rclavicle 2.62644e-014 9.54166e-015
rhumerus 69.9912 -17.0094 -48.5562
rradius 51.3748
rwrist 10.7606
rhand -56.7658 366.666
rfingers 7.12502
rthumb -29.0679 -21.0864
lclavicle 2.62644e-014 9.54166e-015
lhumerus -30.8005 -3.82601 71.2944
lradius 35.2261
lwrist -10.1842
lhand -28.8277 23.9756
lfingers 7.12502
lthumb -2.18527 53.9442
rfemur -8.28659 21.6181 14.5541
rtibia 29.0054
rfoot -19.2086 -16.1036
rtoes -7.44892
lfemur 1.90969 -3.98191 -8.5145
ltibia 20.4231
lfoot -6.8652 16.6098
ltoes -26.7058
3043
root -3.93912 18.5991 3.52185 -0.0631176 -13.6512 3.0721
lowerback 4.31623 -1.16668 3.7117
upperback -0.0827277 -1.38424 -0.663796
thorax -2.61107 -0.743057 -2.67574
lowerneck -8.64747 -9.51482 -5.45084
upperneck 5.20835 -12.8658 9.31618
head 3.92302 -6.07979 2.85306
rclavicle 1.82882e-014 -3.97569e-016
rhumerus 70.2063 -17.0057 -50.3573
rradius 50.8633
rwrist 10.6186
rhand -56.665 365.931
rfingers 7.12502
rthumb -28.9716 -21.8373
lclavicle 1.82882e-014 -3.97569e-016
lhumerus -30.8645 -3.79867 71.3602
lradius 35.292
lwrist -10.1693
lhand -28.9462 23.8764
lfingers 7.12502
lthumb -2.29978 53.8437
rfemur -8.34707 21.6047 14.5469
rtibia 29.2786
rfoot -19.43 -16.1404
rtoes -7.09996
lfemur 1.85801 -4.12955 -8.5777
ltibia 20.5732
lfoot -7.00553 16.6782
ltoes -26.5293
3044
root -3.95552 18.5936 3.51584 -0.109003 -13.5957 3.06776
lowerback 4.42907 -1.18765 3.65063
upperback -0.100018 -1.41024 -0.648447
thorax -2.6923 -0.756817 -2.6215
lowerneck -8.65035 -9.54139 -5.43062
upperneck 5.33383 -12.9045 9.21401
head 3.95582 -6.09995 2.81354
rclavicle -2.47735e-014 -3.57812e-015
rhumerus 70.3674 -17.0051 -52.2164
rradius 50.3167
rwrist 10.7067
rhand -56.3666 365.533
rfingers 7.12502
rthumb -28.6865 -22.2841
lclavicle -2.47735e-014 -3.57812e-015
lhumerus -30.8906 -3.83778 71.4611
lradius 35.3974
lwrist -10.0328
lhand -29.2501 23.9438
lfingers 7.12502
lthumb -2.59325 53.9078
rfemur -8.43736 21.6789 14.6468
rtibia 29.5404
rfoot -19.5081 -16.2496
rtoes -6.95034
lfemur 1.80531 -4.11884 -8.51888
ltibia 20.7322
lfoot -7.03419 16.6866
ltoes -26.422
3045
root -3.96874 18.5878 3.50942 -0.0852513 -13.4962 2.94939
lowerback 4.46326 -1.20879 3.69678
upperback -0.0972245 -1.43337 -0.600235
thorax -2.71024 -0.768893 -2.59538
lowerneck -8.62227 -9.56012 -5.37003
upperneck 5.39629 -12.9388 9.16779
head 3.96555 -6.11698 2.78786
rclavicle 4.34841e-015 1.31198e-014
rhumerus 70.4072 -17.0226 -54.0423
rradius 49.8223
rwrist 10.7265
rhand -56.4647 366.032
rfingers 7.12502
rthumb -28.7802 -21.7697
lclavicle 4.34841e-015 1.31198e-014
lhumerus -30.8087 -3.81725 71.5782
lradius 35.3943
lwrist -10.052
lhand -30.0256 23.5762
lfingers 7.12502
lthumb -3.34221 53.5298
rfemur -8.58027 21.6099 14.8368
rtibia 29.7914
rfoot -19.5075 -16.3322
rtoes -7.05884
lfemur 1.70316 -4.18976 -8.33715
ltibia 20.848
lfoot -7.09361 16.7131
ltoes -26.1266
3046
root -3.98261 18.5815 3.50894 -0.0912026 -13.4233 2.91719
lowerback 4.32618 -1.20074 3.68551
upperback 0.00658431 -1.43054 -0.610118
thorax -2.52585 -0.76252 -2.6032
lowerneck -8.57147 -9.56576 -5.29089
upperneck 5.31294 -12.9618 9.28281
head 3.93688 -6.12518 2.81244
rclavicle -3.19049e-014 1.27222e-014
rhumerus 70.4179 -17.1622 -55.8017
rradius 49.2723
rwrist 10.5858
rhand -56.8941 367.699
rfingers 7.12502
rthumb -29.1903 -20.0323
lclavicle -3.19049e-014 1.27222e-014
lhumerus -30.5642 -3.86726 71.6667
lradius 35.3788
lwrist -10.0273
lhand -30.2431 23.6197
lfingers 7.12502
lthumb -3.55222 53.5698
rfemur -8.66768 21.5848 14.9438
rtibia 30.0359
rfoot -19.5879 -16.4187
rtoes -7.25785
lfemur 1.67532 -4.21201 -8.25573
ltibia 20.8969
lfoot -7.16861 16.7203
ltoes -25.7492
